<svg width="25" height="23" viewBox="0 0 18 20" fill="none" xmlns="http://www.w3.org/2000/svg">
<path d="M15.625 18.625H16.125V18.125V17.125C16.125 14.9895 14.3855 13.25 12.25 13.25C12.0273 13.25 11.8019 13.3091 11.6025 13.3684C11.5066 13.3968 11.4199 13.4243 11.3312 13.4523C11.204 13.4925 11.0729 13.534 10.9055 13.5815C10.3885 13.7282 9.70371 13.875 8.75 13.875C7.80435 13.875 7.11852 13.7283 6.5983 13.5813C6.43024 13.5339 6.29811 13.4923 6.17002 13.4521C6.08077 13.424 5.99348 13.3966 5.89736 13.3681C5.69757 13.3091 5.47156 13.25 5.25 13.25C3.11448 13.25 1.375 14.9895 1.375 17.125V18.125V18.625H1.875H15.625ZM8.75 13C9.73681 13 10.3838 12.8303 10.9174 12.6651C10.9829 12.6449 11.0453 12.6252 11.1054 12.6063C11.5351 12.471 11.84 12.375 12.25 12.375C14.8723 12.375 17 14.5027 17 17.125V18.125C17 18.884 16.384 19.5 15.625 19.5H1.875C1.11599 19.5 0.5 18.884 0.5 18.125V17.125C0.5 14.5027 2.6277 12.375 5.25 12.375C5.66216 12.375 5.96772 12.4713 6.39766 12.6067C6.45718 12.6255 6.51908 12.645 6.58398 12.6651C7.11706 12.8302 7.76313 13 8.75 13ZM13.875 5.625C13.875 8.45433 11.5793 10.75 8.75 10.75C5.92067 10.75 3.625 8.45433 3.625 5.625C3.625 2.79567 5.92067 0.5 8.75 0.5C11.5793 0.5 13.875 2.79567 13.875 5.625ZM13 5.625C13 3.28245 11.0925 1.375 8.75 1.375C6.40745 1.375 4.5 3.28245 4.5 5.625C4.5 7.96755 6.40745 9.875 8.75 9.875C11.0925 9.875 13 7.96755 13 5.625Z" fill="#f59020" stroke="#f59020"></path>
</svg>