<svg width="24" height="26" viewBox="0 0 16 14" fill="none" xmlns="http://www.w3.org/2000/svg" class="hamburger-icon">
<path fill-rule="evenodd" clip-rule="evenodd" d="M0 1.58333C0 1.29601 0.11414 1.02047 0.317298 0.817298C0.520466 0.61414 0.796012 0.5 1.08333 0.5H14.0833C14.3706 0.5 14.6462 0.61414 14.8494 0.817298C15.0525 1.02047 15.1667 1.29601 15.1667 1.58333C15.1667 1.87066 15.0525 2.1462 14.8494 2.34937C14.6462 2.55253 14.3706 2.66667 14.0833 2.66667H1.08333C0.796012 2.66667 0.520466 2.55253 0.317298 2.34937C0.11414 2.1462 0 1.87066 0 1.58333ZM0 7C0 6.71268 0.11414 6.43713 0.317298 6.23396C0.520466 6.03081 0.796012 5.91667 1.08333 5.91667H7.58333C7.87063 5.91667 8.14623 6.03081 8.34936 6.23396C8.55248 6.43713 8.66667 6.71268 8.66667 7C8.66667 7.2873 8.55248 7.5629 8.34936 7.76603C8.14623 7.96915 7.87063 8.08333 7.58333 8.08333H1.08333C0.796012 8.08333 0.520466 7.96915 0.317298 7.76603C0.11414 7.5629 0 7.2873 0 7ZM0 12.4167C0 12.1294 0.11414 11.8538 0.317298 11.6506C0.520466 11.4475 0.796012 11.3333 1.08333 11.3333H14.0833C14.3706 11.3333 14.6462 11.4475 14.8494 11.6506C15.0525 11.8538 15.1667 12.1294 15.1667 12.4167C15.1667 12.704 15.0525 12.9796 14.8494 13.1827C14.6462 13.3858 14.3706 13.5 14.0833 13.5H1.08333C0.796012 13.5 0.520466 13.3858 0.317298 13.1827C0.11414 12.9796 0 12.704 0 12.4167Z" fill="black"></path>
</svg>